{"title":"Laura Pausini Ft. Carlos Baute - Las Cosas Que No Me Espero","uid":7948497,"size":84541675,"categoryP":"video","categoryS":"music_videos","magnet":"?xt=urn:btih:69406a41f25708dd1d43262131639798de14d747&amp;dn=Laura+Pausini+Ft.+Carlos+Baute+-+Las+Cosas+Que+No+Me+Espero&amp;tr=udp%3A%2F%2Ftracker.openbittorrent.com%3A80&amp;tr=udp%3A%2F%2Fopen.demonii.com%3A1337&amp;tr=udp%3A%2F%2Ftracker.coppersurfer.tk%3A6969&amp;tr=udp%3A%2F%2Fexodus.desync.com%3A6969","seeders":2,"leechers":0,"uploader":"MusicVideos-HQ","files":1,"time":1356196861,"description":"General\n\nFormat                         : MPEG-4\nFormat profile                 : Base Media\nCodec ID                       : isom\nFile size                      : 80.6 MiB\nDuration                       : 3mn 47s\nOverall bit rate mode          : Variable\nOverall bit rate               : 2 969 Kbps\nEncoded date                   : UTC 2012-12-09 16:58:02\nTagged date                    : UTC 2012-12-09 16:58:02\n\nVideo\nID                             : 1\nFormat                         : AVC\nFormat/Info                    : Advanced Video Codec\nFormat profile                 : &lt;a class=&quot;__cf_email__&quot; href=&quot;/cdn-cgi/l/email-protection&quot; data-cfemail=&quot;0f476668674f433c213f&quot;&gt;[email&amp;#160;protected]&lt;/a&gt;&lt;script cf-hash='f9e31' type=&quot;text/javascript&quot;&gt;\n/* &lt;![CDATA[ */!function(){try{var t=&quot;currentScript&quot;in document?document.currentScript:function(){for(var t=document.getElementsByTagName(&quot;script&quot;),e=t.length;e--;)if(t[e].getAttribute(&quot;cf-hash&quot;))return t[e]}();if(t&amp;&amp;t.previousSibling){var e,r,n,i,c=t.previousSibling,a=c.getAttribute(&quot;data-cfemail&quot;);if(a){for(e=&quot;&quot;,r=parseInt(a.substr(0,2),16),n=2;a.length-n;n+=2)i=parseInt(a.substr(n,2),16)^r,e+=String.fromCharCode(i);e=document.createTextNode(e),c.parentNode.replaceChild(e,c)}}}catch(u){}}();/* ]]&gt; */&lt;/script&gt;\nFormat settings, CABAC         : Yes\nFormat settings, ReFrames      : 2 frames\nCodec ID                       : avc1\nCodec ID/Info                  : Advanced Video Coding\nDuration                       : 3mn 47s\nBit rate                       : 2 774 Kbps\nMaximum bit rate               : 8 367 Kbps\nWidth                          : 720 pixels\nHeight                         : 480 pixels\nDisplay aspect ratio           : 16:9\nOriginal display aspect ratio  : 16:9\nFrame rate mode                : Constant\nFrame rate                     : 25.000 fps\nStandard                       : NTSC\nColor space                    : YUV\nChroma subsampling             : 4:2:0\nBit depth                      : 8 bits\nScan type                      : Progressive\nBits/(Pixel*Frame)             : 0.321\nStream size                    : 75.3 MiB (93%)\n\n\nAudio\nID                             : 2\nFormat                         : AAC\nFormat/Info                    : Advanced Audio Codec\nFormat profile                 : LC\nCodec ID                       : 40\nDuration                       : 3mn 47s\nBit rate mode                  : Variable\nBit rate                       : 192 Kbps\nMaximum bit rate               : 234 Kbps\nChannel(s)                     : 2 channels\nChannel positions              : Front: L R\nSampling rate                  : 44.1 KHz\nCompression mode               : Lossy\nStream size                    : 5.19 MiB (6%)","torrent":{"xt":"urn:btih:69406a41f25708dd1d43262131639798de14d747","amp;dn":"Laura+Pausini+Ft.+Carlos+Baute+-+Las+Cosas+Que+No+Me+Espero","amp;tr":["udp%3A%2F%2Ftracker.openbittorrent.com%3A80","udp%3A%2F%2Fopen.demonii.com%3A1337","udp%3A%2F%2Ftracker.coppersurfer.tk%3A6969","udp%3A%2F%2Fexodus.desync.com%3A6969"],"infoHash":"69406a41f25708dd1d43262131639798de14d747","infoHashBuffer":{"type":"Buffer","data":[105,64,106,65,242,87,8,221,29,67,38,33,49,99,151,152,222,20,215,71]},"announce":[],"urlList":[]}}